<?xml version="1.0" standalone="no"?>
<!DOCTYPE svg PUBLIC "-//W3C//DTD SVG 20010904//EN"
 "http://www.w3.org/TR/2001/REC-SVG-20010904/DTD/svg10.dtd">
<svg version="1.0" xmlns="http://www.w3.org/2000/svg"
 width="500.000000pt" height="500.000000pt" viewBox="0 0 500.000000 500.000000"
 preserveAspectRatio="xMidYMid meet">

<g transform="translate(0.000000,500.000000) scale(0.100000,-0.100000)"
fill="#000000" stroke="none">
<path d="M2325 4688 c-24 -106 -24 -105 0 -100 23 4 31 32 8 32 -7 0 -13 4
-13 10 0 5 8 7 18 4 13 -5 14 -4 3 4 -9 7 -12 20 -8 41 7 35 0 43 -8 9z"/>
<path d="M2447 4651 c-4 -18 -7 -43 -6 -55 1 -11 5 -1 10 24 5 25 7 49 6 55
-2 5 -7 -5 -10 -24z"/>
<path d="M1913 4634 c2 -16 10 -44 15 -62 10 -30 9 -33 -6 -28 -14 5 -14 3 2
-9 15 -11 23 -12 40 -3 19 11 19 12 3 16 -11 2 -16 9 -13 18 3 7 1 16 -5 19
-5 4 -7 11 -3 16 3 5 0 8 -8 7 -12 -3 -13 1 -5 33 1 6 -4 14 -12 17 -10 3 -12
-3 -8 -24z"/>
<path d="M2760 4612 c0 -11 -8 -26 -17 -31 -17 -10 -17 -10 -1 -11 18 0 36 45
24 57 -3 4 -6 -3 -6 -15z"/>
<path d="M2811 4603 c-1 -25 3 -33 17 -33 11 0 13 3 6 8 -7 4 -14 18 -17 32
-4 21 -4 20 -6 -7z"/>
<path d="M1617 4603 c-10 -9 -8 -41 2 -47 5 -4 7 2 4 13 -6 25 11 35 27 16 16
-20 36 -19 44 1 6 15 8 15 25 0 12 -11 30 -16 48 -13 l28 4 -29 2 c-16 0 -38
9 -48 18 -16 14 -23 15 -38 5 -12 -7 -21 -8 -25 -2 -7 11 -28 13 -38 3z"/>
<path d="M2690 4600 c0 -6 -12 -23 -27 -37 -16 -14 -22 -24 -14 -21 19 6 67
68 52 68 -6 0 -11 -5 -11 -10z"/>
<path d="M1838 4563 c7 -3 16 -2 19 1 4 3 -2 6 -13 5 -11 0 -14 -3 -6 -6z"/>
<path d="M2428 4540 c-3 -19 -5 -82 -6 -140 l0 -105 9 130 c9 129 7 183 -3
115z"/>
<path d="M2916 4537 c3 -10 9 -15 12 -12 3 3 0 11 -7 18 -10 9 -11 8 -5 -6z"/>
<path d="M1612 4510 c0 -19 2 -27 5 -17 2 9 2 25 0 35 -3 9 -5 1 -5 -18z"/>
<path d="M2881 4523 c0 -12 -4 -30 -7 -40 -5 -14 -4 -15 5 -7 7 6 11 24 8 40
-3 21 -4 23 -6 7z"/>
<path d="M2557 4477 c-49 -50 -125 -182 -112 -195 3 -3 8 4 12 16 3 12 10 22
15 22 5 0 7 4 4 8 -9 15 73 135 115 169 23 18 36 33 30 33 -7 0 -36 -24 -64
-53z"/>
<path d="M2942 4524 c4 -4 2 -16 -4 -28 -11 -20 -11 -20 -18 -1 -6 16 -8 12
-14 -18 -4 -23 -12 -37 -22 -37 -8 0 -13 4 -10 9 4 5 -3 7 -15 4 -12 -4 -25 0
-30 8 -6 9 -8 3 -6 -18 2 -32 17 -48 17 -18 0 11 7 13 29 9 22 -5 36 1 65 26
39 35 45 54 19 64 -10 4 -14 4 -11 0z m9 -37 c-10 -9 -11 -8 -5 6 3 10 9 15
12 12 3 -3 0 -11 -7 -18z"/>
<path d="M2291 4489 c-1 -28 4 -39 22 -48 l22 -12 -24 5 c-17 4 -21 2 -13 -6
6 -6 19 -7 29 -4 16 7 16 9 2 19 -9 7 -16 14 -17 17 -1 5 -5 19 -15 50 -3 8
-6 -1 -6 -21z"/>
<path d="M1810 4476 c0 -22 -3 -26 -12 -18 -14 11 -67 10 -86 -2 -7 -4 -15 -1
-18 8 -5 13 -9 12 -23 -5 -16 -20 -18 -20 -34 -4 -9 9 -17 11 -17 5 0 -6 7
-13 15 -16 8 -4 12 -10 9 -15 -10 -17 24 -20 55 -5 73 38 176 2 261 -91 27
-30 50 -59 50 -63 0 -5 -19 -22 -42 -38 -24 -16 -52 -40 -63 -53 -12 -14 -5
-11 18 9 21 17 43 32 49 32 6 0 26 11 45 26 35 27 94 54 115 54 7 -1 1 -7 -14
-15 -51 -28 -91 -188 -69 -272 12 -45 33 -56 50 -25 9 14 10 14 11 1 0 -8 -16
-30 -35 -49 -22 -21 -35 -28 -35 -19 0 12 -2 12 -10 -1 -5 -8 -10 -11 -10 -6
0 5 -10 0 -23 -12 -13 -12 -27 -19 -32 -15 -4 5 -5 2 -1 -5 4 -7 12 -10 17 -7
12 8 11 -2 -6 -45 -10 -25 -14 -29 -15 -15 l-1 20 -9 -20 c-6 -15 -9 -8 -9 29
-1 42 -5 52 -37 82 l-37 33 -31 -24 c-17 -14 -46 -40 -65 -60 -38 -40 -56 -37
-47 9 4 21 3 26 -4 16 -5 -8 -12 -31 -15 -52 -5 -27 -22 -53 -62 -93 -58 -60
-112 -158 -117 -217 -2 -19 -5 -39 -8 -44 -13 -22 -18 -67 -10 -77 6 -7 12
-21 16 -32 3 -11 4 -7 2 10 -4 28 -3 29 11 10 15 -19 15 -19 8 4 -5 18 -4 22
5 16 9 -5 11 -4 6 4 -9 14 21 64 33 56 5 -2 15 3 22 13 13 15 12 16 -3 3 -55
-42 28 73 104 145 29 28 71 65 93 84 22 18 46 43 54 54 8 12 -8 -1 -36 -27
-27 -26 -56 -47 -63 -45 -8 2 -14 -4 -15 -12 0 -8 -7 -16 -15 -16 -8 -1 -19
-3 -25 -4 -5 -1 -13 -2 -16 -2 -9 1 -118 -111 -120 -123 -2 -22 -26 -57 -32
-48 -11 17 12 81 41 115 15 18 21 29 15 24 -7 -4 -13 -4 -13 -1 0 10 84 117
113 143 14 13 24 31 22 40 -1 9 0 11 2 5 3 -7 7 -13 10 -13 3 0 34 27 70 60
69 65 83 67 117 18 18 -25 21 -85 7 -107 -7 -11 -3 -18 12 -26 17 -8 22 -20
21 -47 -1 -29 2 -35 16 -31 13 4 21 -4 29 -30 15 -45 7 -64 -37 -78 -51 -16
-63 -29 -18 -19 34 7 38 6 48 -16 15 -32 -4 -74 -32 -74 -11 0 -20 -4 -20 -9
0 -5 9 -7 20 -4 22 6 26 -8 9 -38 -6 -11 -16 -18 -23 -16 -8 3 -11 -4 -8 -23
3 -21 -3 -36 -22 -55 -29 -29 -62 -30 -60 -2 3 27 -13 10 -19 -22 -5 -22 -12
-29 -26 -28 -18 1 -18 3 -5 32 l15 30 -21 -25 -22 -24 -19 24 c-14 19 -19 21
-19 9 0 -9 -9 -27 -20 -40 -17 -21 -21 -22 -30 -9 -5 8 -10 26 -10 40 l-1 25
-10 -25 c-6 -14 -15 -43 -19 -65 -8 -35 -9 -34 -4 15 7 75 -7 56 -17 -22 -8
-63 -8 -63 -5 17 2 48 0 70 -4 55 -5 -14 -9 -20 -10 -15 -3 17 -18 -38 -20
-75 -1 -19 -4 -29 -7 -22 -2 6 -8 10 -12 8 -10 -6 -4 91 8 146 6 24 8 44 6 46
-6 6 -35 -105 -35 -135 0 -19 -3 -24 -9 -15 -12 20 -24 -15 -11 -36 7 -13 9
-13 10 -3 0 8 3 11 6 8 9 -9 -16 -38 -27 -31 -5 3 -8 0 -7 -7 2 -6 -2 -13 -9
-16 -16 -6 -22 86 -11 171 13 98 3 93 -12 -7 -11 -71 -10 -102 2 -193 9 -60
20 -122 26 -139 6 -16 18 -70 26 -120 21 -115 63 -201 161 -330 42 -55 114
-150 161 -212 46 -61 112 -136 146 -167 61 -56 98 -76 62 -34 -12 14 -13 18
-3 10 9 -6 18 -9 21 -7 3 3 5 -3 4 -14 0 -11 17 -44 39 -73 121 -160 272 -259
407 -266 96 -6 149 11 211 68 67 61 123 161 197 346 32 82 79 194 105 249 25
55 44 108 41 118 -2 9 -1 15 4 12 13 -8 32 83 38 178 4 67 1 102 -13 146 -14
49 -15 67 -6 110 6 29 11 75 11 103 0 33 8 68 22 97 19 38 23 69 28 181 7 178
23 205 100 165 37 -19 136 -27 167 -12 32 14 29 35 -13 78 l-36 37 31 7 c17 4
45 4 62 0 22 -5 34 -3 40 6 12 19 11 70 -2 107 -9 27 -16 31 -60 37 -47 7 -49
8 -35 24 21 23 20 44 -2 71 l-18 23 -43 -28 c-46 -31 -61 -25 -61 23 0 13 -4
20 -10 17 -14 -8 -13 8 1 22 13 13 3 83 -11 83 -6 0 -10 6 -10 13 0 6 -4 18
-9 25 -11 19 -77 0 -116 -34 -23 -20 -25 -23 -7 -14 33 17 39 5 8 -16 -15 -9
-24 -19 -21 -22 3 -3 14 3 25 13 11 10 23 16 26 12 5 -5 -21 -26 -92 -75 -34
-23 26 7 88 45 32 19 62 32 67 28 5 -3 12 -1 16 5 3 5 11 10 18 10 6 0 2 -6
-8 -14 -11 -8 -22 -13 -25 -11 -6 4 -13 -59 -12 -111 0 -29 -3 -32 -69 -53
-38 -12 -74 -19 -81 -15 -7 5 -8 3 -3 -6 6 -9 2 -10 -15 -5 -16 5 -20 4 -15
-5 5 -9 1 -10 -15 -5 -15 5 -20 3 -16 -3 3 -6 -4 -13 -16 -17 -64 -18 -108
-39 -98 -45 8 -5 4 -9 -9 -13 -13 -3 -19 -1 -14 5 7 12 -6 6 -50 -24 -15 -11
-25 -23 -22 -27 2 -5 -5 -17 -18 -27 -16 -14 -18 -14 -9 -2 7 9 9 19 4 22 -15
9 -52 -49 -40 -65 8 -12 9 -11 5 2 -3 9 1 16 8 16 10 0 11 -6 2 -24 -7 -17
-13 -20 -18 -11 -12 19 -23 1 -23 -37 0 -18 -4 -31 -8 -29 -5 3 -6 -7 -3 -23
5 -19 4 -24 -3 -15 -14 21 -25 -33 -11 -55 8 -14 6 -27 -5 -55 -9 -21 -20 -38
-26 -38 -11 0 9 62 23 71 5 4 5 9 -1 13 -11 6 -45 -81 -37 -94 10 -15 -34 -17
-57 -3 -13 9 -3 -2 21 -23 42 -38 43 -41 33 -75 -5 -20 -9 -95 -8 -167 0 -71
-2 -128 -6 -125 -13 7 -9 -22 6 -42 12 -17 14 -16 25 18 7 20 10 40 7 45 -3 5
1 9 8 9 8 0 12 -8 9 -21 -4 -16 -2 -17 5 -7 12 17 18 5 21 -44 3 -67 11 -52
11 23 l0 72 27 -2 c15 -2 40 -15 55 -30 15 -15 53 -35 85 -45 32 -9 61 -21 64
-26 4 -5 9 -3 11 4 4 10 8 11 19 3 23 -17 59 -15 60 4 1 9 7 -1 14 -23 l13
-40 5 30 c3 17 4 -12 2 -64 -1 -55 1 -88 6 -80 5 8 9 36 9 63 0 39 2 46 14 37
8 -7 13 -33 13 -73 0 -61 0 -61 -7 -18 l-7 45 -3 -40 c-1 -22 -1 -44 0 -50 2
-5 4 -21 7 -35 3 -23 2 -23 -7 -5 -8 16 -9 12 -6 -20 l5 -40 -19 35 -19 35 -1
-30 c0 -23 -3 -27 -10 -15 -6 9 -10 10 -10 3 0 -6 5 -15 11 -19 14 -8 4 -66
-21 -119 -16 -35 -33 -81 -35 -95 -2 -15 -40 -68 -46 -65 -4 3 -9 -8 -12 -23
-7 -34 -38 -122 -67 -185 -11 -26 -18 -52 -14 -59 4 -6 3 -8 -3 -5 -6 4 -14 0
-17 -9 -3 -8 -2 -12 4 -9 15 9 12 -8 -6 -33 -16 -23 -41 -31 -28 -9 4 6 -4 2
-17 -10 -13 -12 -27 -21 -31 -20 -3 1 -10 -2 -15 -7 -5 -5 -3 -6 5 -2 6 4 12
3 12 -3 0 -10 -52 -51 -66 -51 -4 0 -15 -7 -24 -15 -26 -23 -183 -23 -245 1
-18 7 -19 6 -6 -10 9 -11 24 -16 38 -13 14 3 23 -1 23 -9 0 -7 6 -15 13 -18 6
-3 -4 -3 -23 0 -54 10 -148 57 -156 79 -3 8 -4 24 -2 37 3 22 5 21 43 -17 31
-30 49 -40 79 -42 21 -2 45 2 55 7 13 8 11 9 -10 10 -15 0 -37 9 -50 19 l-24
19 30 -4 c24 -4 26 -3 10 5 -32 14 -47 37 -43 68 3 30 0 29 88 18 44 -5 45 -5
13 7 -17 7 -35 16 -39 21 -4 4 -18 7 -30 7 -26 0 -39 14 -28 32 5 7 7 27 5 44
-1 16 9 62 24 100 33 89 106 244 115 244 26 0 60 -80 61 -144 0 -47 30 -128
49 -134 8 -3 5 9 -8 30 -12 20 -22 46 -22 59 1 23 2 23 17 -6 9 -16 16 -32 15
-35 -1 -10 20 -30 27 -25 4 2 24 -10 44 -26 20 -17 37 -26 37 -20 0 5 -21 26
-46 47 -48 40 -63 67 -83 152 -7 28 -18 52 -23 52 -6 0 -8 7 -4 15 3 8 1 15
-5 15 -6 0 -8 4 -5 9 3 5 -1 25 -9 46 -15 34 -14 40 9 98 13 34 29 80 35 102
6 22 18 51 25 64 l13 24 33 -44 c18 -24 41 -62 51 -84 10 -22 19 -34 19 -27 0
7 -9 31 -21 54 -15 30 -18 43 -9 48 9 6 9 9 -1 12 -7 2 -9 9 -5 17 6 9 11 9
22 0 7 -6 12 -14 10 -18 -2 -3 3 -22 10 -41 11 -26 13 -28 9 -8 -3 18 0 28 10
30 9 2 1 14 -26 36 -22 19 -39 30 -38 25 4 -16 -13 -43 -23 -37 -6 4 -5 10 3
14 10 7 10 12 0 23 -9 12 -9 17 0 23 8 5 9 3 4 -6 -5 -9 -4 -11 4 -6 6 4 9 12
5 17 -3 6 -9 8 -12 5 -3 -3 -13 1 -22 9 -16 15 -18 14 -25 -12 -9 -36 -115
-204 -125 -198 -4 2 -13 -14 -19 -37 -8 -25 -16 -37 -20 -30 -4 7 -15 -11 -25
-44 -10 -31 -30 -76 -46 -100 -15 -25 -38 -70 -51 -102 -27 -69 -57 -114 -70
-106 -5 3 -8 0 -7 -7 2 -7 -9 -19 -24 -28 -26 -15 -28 -14 -53 13 -14 15 -29
25 -32 22 -4 -3 4 -17 16 -30 l23 -25 -30 4 c-17 2 -40 8 -50 14 -10 5 -39 12
-66 15 -59 7 -62 9 -71 43 -6 24 -78 117 -154 198 -29 31 -46 63 -42 80 2 6
-1 7 -5 2 -4 -4 -16 1 -28 10 -11 10 6 -19 37 -65 31 -45 51 -82 45 -82 -6 0
-5 -7 3 -17 12 -14 12 -16 0 -9 -9 6 -12 5 -9 -4 2 -7 12 -14 21 -16 14 -2 16
3 12 19 -5 19 -5 20 5 4 12 -19 4 -41 -11 -32 -15 10 -10 -7 9 -29 11 -13 12
-17 2 -9 -9 6 -39 47 -68 90 -30 43 -43 66 -30 50 13 -15 27 -24 31 -21 12 12
8 26 -5 18 -6 -4 -8 -3 -5 3 6 10 -46 95 -57 94 -16 -2 -18 0 -7 13 14 17 -3
61 -20 51 -5 -4 -6 -11 -3 -17 5 -7 2 -8 -5 -3 -9 5 -10 10 -2 18 13 13 15 31
3 23 -5 -3 -9 0 -9 7 0 7 -17 40 -37 74 -20 34 -33 68 -30 77 3 8 -5 30 -18
48 -13 18 -24 45 -23 60 0 15 -3 24 -8 21 -5 -3 -6 4 -2 17 5 15 4 20 -4 16
-7 -5 -11 3 -11 22 0 17 6 32 15 36 8 3 15 12 15 21 0 8 4 15 10 15 5 0 9 6 7
13 -1 6 4 11 11 10 6 -2 12 2 12 8 0 6 7 8 16 5 8 -3 12 -2 9 4 -3 5 12 20 34
34 21 14 58 48 82 75 23 28 46 51 51 51 15 0 9 -97 -7 -110 -9 -7 -18 -10 -22
-6 -10 10 -42 -66 -42 -99 l1 -30 9 31 c5 17 18 39 30 50 20 18 21 18 35 -1 8
-10 14 -26 14 -35 0 -9 7 -25 15 -36 8 -10 15 -37 16 -59 2 -31 3 -34 6 -12 2
15 8 25 12 23 4 -3 -3 16 -16 42 -25 50 -29 122 -6 129 7 3 24 -7 38 -21 14
-14 25 -21 25 -17 0 5 -7 14 -16 22 -18 15 -54 82 -54 101 0 8 9 30 19 51 19
38 16 47 -9 25 -8 -7 -6 -3 5 10 10 13 21 18 25 12 3 -6 23 -1 50 13 52 26
140 31 148 8 8 -23 73 -91 87 -91 30 0 46 -32 45 -89 -1 -31 3 -77 8 -103 5
-26 7 -50 3 -53 -3 -3 2 -3 12 0 13 6 14 11 6 27 -14 26 -1 188 15 188 21 0
71 -39 124 -97 30 -32 46 -46 37 -30 l-17 27 28 0 c16 0 49 -11 74 -25 l45
-25 -30 25 c-16 14 -36 25 -43 25 -7 0 -10 5 -7 10 3 6 25 10 48 10 38 1 40 2
24 14 -13 11 -27 12 -52 5 -37 -11 -101 -7 -112 6 -5 4 -3 5 3 2 12 -7 24 22
24 61 0 13 12 35 26 49 14 14 19 23 11 20 -8 -3 -20 0 -27 6 -10 9 -11 9 -6 0
3 -6 -2 -29 -13 -50 -10 -21 -21 -44 -23 -51 -2 -9 -16 -4 -46 17 -23 17 -42
28 -42 25 0 -4 -9 1 -20 11 -11 10 -18 28 -17 45 1 16 4 26 6 24 2 -2 21 12
43 31 38 35 89 47 103 25 3 -5 16 -10 28 -9 22 1 22 1 -1 7 -31 9 -29 26 3 30
46 6 26 17 -29 15 -33 0 -65 -8 -81 -19 l-28 -18 6 29 c3 17 8 44 11 60 6 29
6 29 -3 3 -5 -14 -13 -32 -17 -40 -5 -7 -10 -24 -11 -38 -5 -44 -6 -49 -17
-47 -6 1 -14 9 -18 17 -5 11 -7 8 -7 -8 -1 -13 -8 -36 -16 -52 -17 -33 -36
-31 -72 7 -18 19 -20 28 -13 54 5 17 14 37 21 45 6 8 8 14 4 14 -4 0 8 18 25
40 17 22 36 40 42 40 6 0 24 11 40 25 16 14 33 23 38 20 4 -3 14 3 21 13 13
16 12 16 -6 2 -14 -10 -12 -5 6 15 14 17 33 41 42 55 10 13 17 20 17 14 0 -5
-5 -15 -12 -22 -6 -6 -8 -15 -4 -19 10 -10 26 17 26 47 0 19 3 21 9 11 6 -10
9 0 7 28 -1 31 -9 49 -30 69 -16 15 -26 22 -23 16 4 -7 -8 -5 -28 4 -38 17
-39 38 -7 75 8 9 12 17 8 17 -4 0 1 14 11 30 20 34 33 36 94 14 34 -12 64 -14
129 -9 80 6 147 24 93 25 -13 0 -23 5 -23 10 0 7 -6 7 -18 1 -14 -7 -31 -4
-67 15 -95 48 -182 27 -230 -56 l-29 -50 -26 23 -25 22 24 -28 c23 -26 24 -29
10 -60 -8 -17 -15 -44 -14 -59 1 -16 -2 -28 -6 -28 -7 0 6 -75 21 -122 7 -24
4 -31 -21 -48 -58 -42 -139 -135 -139 -160 0 -13 -31 -13 -50 0 -13 9 -13 10
0 10 13 0 13 1 0 10 -12 8 -12 10 -1 10 8 0 11 3 7 7 -4 4 -23 6 -44 6 -32 -1
-34 0 -12 7 14 4 18 8 9 9 -8 1 -23 7 -33 14 -15 11 -12 12 21 11 31 -1 32 0
8 4 l-30 5 25 7 c22 7 20 8 -14 9 -37 1 -38 2 -23 19 21 23 21 27 1 46 -12 12
-12 16 -2 16 10 0 10 2 -1 9 -22 14 14 59 52 64 26 3 23 4 -12 5 -24 1 -42 5
-38 8 3 3 -3 16 -14 27 -19 20 -19 22 -2 28 10 4 23 4 28 2 6 -2 1 3 -9 11
-11 9 -23 16 -27 16 -4 0 -4 12 0 28 5 15 13 26 20 24 6 -1 11 5 11 14 0 10
-6 14 -14 11 -10 -4 -12 0 -9 14 3 10 9 19 14 19 5 0 9 7 9 17 0 9 18 33 40
54 22 21 40 43 40 48 0 5 10 12 23 14 l22 4 -22 2 c-27 1 -29 8 -6 33 9 10 12
18 6 18 -11 0 -11 29 1 48 4 6 3 12 -2 12 -11 0 -3 58 9 66 5 3 9 15 8 27 -1
39 -30 -40 -39 -107 -7 -56 -8 -57 -9 -18 0 24 11 77 25 118 14 42 23 82 20
90 -4 9 -2 12 5 8 7 -4 8 -19 5 -37 -4 -21 -3 -28 4 -21 5 5 11 21 13 34 4 20
-3 29 -30 47 -33 20 -37 20 -71 6 -24 -10 -38 -11 -40 -5 -2 6 -9 9 -16 6 -12
-5 -31 10 -38 31 -1 6 -6 9 -9 8 -3 -1 -6 5 -6 13 0 10 7 9 24 -8 l23 -21 25
23 c13 12 22 27 19 32 -7 11 -19 1 -19 -15 0 -7 -11 -12 -25 -11 -14 0 -24 5
-23 11 2 12 -22 12 -33 0 -3 -3 -13 1 -21 9 -14 13 -13 17 3 37 l19 22 -22
-18 c-18 -16 -24 -16 -42 -5 -12 7 -21 16 -21 21 0 4 -4 5 -10 2 -5 -3 -10 -1
-10 5 0 6 -4 8 -10 5 -5 -3 -10 -2 -10 2 0 5 -7 18 -15 29 -14 18 -14 18 -15
-10z m791 -546 l24 -19 -32 -1 c-45 0 -133 22 -127 32 3 4 29 8 58 8 39 0 60
-6 77 -20z m649 -45 c0 -5 -5 -3 -10 5 -5 8 -10 20 -10 25 0 6 5 3 10 -5 5 -8
10 -19 10 -25z m155 7 c-3 -10 0 -12 10 -8 20 7 19 -13 -2 -36 -18 -20 -38
-25 -27 -5 4 6 5 10 1 7 -3 -3 -6 -8 -6 -12 -1 -8 -62 -61 -97 -86 -17 -12
-17 -12 6 -8 14 3 33 6 43 6 11 0 15 4 11 12 -5 7 -2 9 9 5 11 -4 14 -2 11 7
-6 17 51 27 65 13 7 -7 18 -7 33 0 24 11 38 3 50 -27 5 -13 -7 -15 -81 -15
-107 0 -158 -10 -158 -31 0 -12 7 -14 26 -11 14 3 55 9 91 13 65 8 65 8 25 16
-27 5 -18 6 29 3 77 -5 84 -8 66 -30 -9 -11 -9 -15 -1 -15 7 0 10 -4 6 -10 -3
-5 -12 -7 -20 -4 -8 4 -12 10 -9 15 3 5 -6 9 -20 9 -14 0 -26 -4 -26 -8 0 -5
-30 -9 -66 -9 -36 0 -71 -6 -77 -13 -9 -9 -6 -10 14 -5 29 7 56 -16 43 -37 -6
-10 -4 -10 9 1 15 12 21 9 47 -19 30 -32 38 -50 21 -50 -13 0 -32 26 -24 33 3
4 1 7 -6 7 -7 0 -9 5 -5 12 4 6 3 8 -4 4 -5 -3 -13 0 -15 6 -4 9 -6 10 -6 1
-1 -6 4 -15 9 -18 24 -15 7 -22 -21 -8 -16 8 -47 15 -67 15 -52 -1 -79 8 -61
19 11 7 9 9 -7 9 -12 0 -37 3 -55 6 -19 4 -31 3 -26 -1 8 -10 -44 -34 -77 -36
-17 -1 -17 -2 -3 -6 9 -2 15 -9 11 -14 -3 -6 5 -7 23 -3 15 4 30 7 33 6 28 0
29 -4 9 -32 -13 -16 -20 -33 -16 -37 4 -3 7 0 7 8 0 12 2 11 11 -1 9 -12 10
-10 6 8 -3 13 -3 21 0 18 3 -3 12 2 19 12 10 13 10 7 -1 -23 -8 -22 -15 -51
-15 -65 -1 -14 -5 -34 -10 -45 -6 -14 -7 -4 -5 30 4 50 4 50 -5 10 -5 -22 -9
-57 -9 -77 -1 -20 -6 -59 -12 -86 l-12 -50 -21 42 c-12 23 -27 48 -34 56 -7 8
-23 31 -35 50 -21 32 -28 35 -75 38 -49 3 -56 0 -101 -37 -27 -23 -54 -41 -60
-41 -6 0 -19 -19 -30 -42 -11 -24 -21 -38 -21 -33 -1 6 -6 1 -11 -10 -7 -16
-8 -13 -4 13 3 20 1 31 -5 27 -5 -3 -1 14 10 39 10 25 26 83 35 128 8 46 20
85 25 86 6 2 10 10 10 17 0 19 56 81 88 100 81 45 136 67 178 71 25 2 66 13
91 24 25 11 49 18 53 15 5 -3 16 2 25 11 9 9 24 14 35 11 11 -3 18 -2 15 3 -3
4 2 11 11 14 9 4 13 2 8 -5 -4 -7 -1 -10 7 -7 8 3 13 11 11 18 -2 9 6 7 25 -5
l28 -18 -19 22 c-15 17 -16 20 -4 16 9 -4 19 -1 24 6 5 8 3 10 -7 5 -8 -4 -3
1 10 11 27 23 54 26 46 5z m-954 -203 c-5 -13 -10 -19 -10 -12 -1 15 10 45 15
40 3 -2 0 -15 -5 -28z m-742 -26 c-7 -10 -32 -38 -54 -63 -22 -25 -56 -66 -74
-92 -19 -27 -37 -46 -40 -43 -2 3 10 26 27 50 18 25 32 49 32 53 0 10 81 97
90 97 5 0 12 3 16 8 14 14 16 7 3 -10z m1416 -53 c-3 -5 -12 -10 -18 -10 -7 0
-6 4 3 10 19 12 23 12 15 0z m-805 -84 c0 -2 -8 -10 -17 -17 -16 -13 -17 -12
-4 4 13 16 21 21 21 13z m-789 -53 c-12 -20 -14 -14 -5 12 4 9 9 14 11 11 3
-2 0 -13 -6 -23z m1173 -9 c3 -8 2 -12 -4 -9 -6 3 -10 10 -10 16 0 14 7 11 14
-7z m203 -30 c-3 -3 -12 -4 -19 -1 -8 3 -5 6 6 6 11 1 17 -2 13 -5z m72 -4
c22 -11 45 -64 38 -85 -4 -8 -1 -17 5 -21 7 -5 8 -2 3 6 -5 9 -4 11 4 6 6 -4
10 -13 9 -19 -3 -17 22 -87 31 -87 13 0 32 -173 22 -210 -5 -19 -10 -28 -10
-20 -1 10 -7 6 -17 -10 l-15 -25 6 25 c5 21 3 19 -16 -10 -12 -19 -24 -30 -26
-24 -4 11 -66 10 -85 -2 -7 -5 -9 -2 -5 9 4 12 2 14 -10 10 -13 -5 -13 -3 -4
15 15 27 14 32 -3 26 -11 -4 -13 0 -9 14 3 14 -1 22 -17 27 -16 5 -20 13 -18
33 2 15 -4 32 -12 39 -13 10 -12 14 5 33 l20 23 -22 -7 c-14 -4 -23 -3 -23 3
0 5 10 17 23 26 19 14 19 16 3 13 -33 -5 -41 -32 -29 -85 17 -69 25 -154 13
-125 -5 12 -18 22 -30 22 -11 0 -20 7 -20 16 0 8 -4 13 -9 10 -5 -3 -12 1 -15
10 -3 8 -10 13 -15 10 -12 -8 -22 20 -14 41 4 11 3 14 -5 9 -22 -14 -12 20 13
44 14 13 25 28 25 32 0 5 -7 2 -16 -6 -22 -22 -36 -10 -21 17 6 12 14 24 17
27 3 3 5 21 5 40 0 33 2 35 40 41 22 3 35 7 30 8 -6 0 -11 10 -12 21 -1 15 4
20 23 20 14 0 23 4 20 9 -3 4 2 17 10 27 9 10 13 14 9 7 -3 -7 1 -27 9 -45 13
-29 14 -30 10 -6 -6 26 16 63 37 63 4 0 11 3 15 8 9 9 12 9 33 -3z m-886 -27
c-7 -2 -21 -2 -30 0 -10 3 -4 5 12 5 17 0 24 -2 18 -5z m1038 -106 c-8 -8 -11
-4 -11 14 0 33 14 47 18 19 2 -12 -1 -27 -7 -33z m-434 -69 c-3 -7 -5 -2 -5
12 0 14 2 19 5 13 2 -7 2 -19 0 -25z m-952 2 c0 -7 -7 -14 -16 -15 -12 -2 -15
3 -12 16 6 22 28 20 28 -1z m64 -29 c-19 -22 -38 -40 -42 -40 -4 -1 9 19 29
44 21 24 40 42 42 40 3 -2 -10 -22 -29 -44z m461 39 c0 -5 -7 -7 -15 -4 -8 4
-15 8 -15 10 0 2 7 4 15 4 8 0 15 -4 15 -10z m847 -22 c-3 -8 -6 -5 -6 6 -1
11 2 17 5 13 3 -3 4 -12 1 -19z m-1358 -71 c-2 -1 -13 -9 -24 -17 -19 -14 -19
-14 -6 3 7 9 18 17 24 17 6 0 8 -1 6 -3z m-242 -39 c-3 -8 -6 -5 -6 6 -1 11 2
17 5 13 3 -3 4 -12 1 -19z m32 -41 c-2 -31 -2 -31 -6 -4 -2 15 -9 25 -14 22
-5 -3 -6 1 -3 9 10 25 24 8 23 -27z m1158 11 c-3 -8 -6 -5 -6 6 -1 11 2 17 5
13 3 -3 4 -12 1 -19z m-1172 -68 c7 -24 6 -24 -10 -8 -10 9 -19 34 -21 55 l-3
38 13 -30 c8 -16 17 -41 21 -55z m1170 -19 c3 -7 0 -8 -9 -5 -12 5 -16 20 -15
58 l1 51 8 -47 c5 -26 11 -52 15 -57z m-1038 -317 c-3 -3 -12 -4 -19 -1 -8 3
-5 6 6 6 11 1 17 -2 13 -5z m23 -54 c7 -13 7 -20 1 -20 -6 0 -15 9 -21 20 -7
13 -7 20 -1 20 6 0 15 -9 21 -20z m880 -30 c0 -5 -2 -10 -4 -10 -3 0 -8 5 -11
10 -3 6 -1 10 4 10 6 0 11 -4 11 -10z m-102 -170 c-26 -48 -30 -62 -19 -69 8
-5 9 -11 3 -15 -6 -3 -12 -1 -14 6 -2 6 -12 -11 -22 -38 -11 -27 -38 -87 -62
-132 -42 -81 -55 -85 -34 -13 l10 35 -37 -35 c-20 -19 -30 -25 -22 -13 8 11
31 35 51 53 21 18 46 55 59 86 12 30 27 51 32 48 6 -4 8 0 4 10 -4 10 -1 17 5
17 6 0 9 3 5 6 -3 4 11 38 31 77 22 42 38 64 40 54 2 -9 -12 -44 -30 -77z
m161 -30 c0 -10 -3 -8 -9 5 -12 27 -12 43 0 25 5 -8 9 -22 9 -30z m11 -45 c0
-8 -4 -15 -10 -15 -5 0 -10 7 -10 15 0 8 5 15 10 15 6 0 10 -7 10 -15z m-450
-199 c23 -15 38 -31 34 -37 -4 -6 -12 -5 -22 3 -14 10 -13 8 1 -9 16 -18 18
-38 8 -82 -1 -2 -8 2 -16 9 -17 14 -10 34 8 23 8 -5 8 -2 0 9 -7 8 -11 17 -8
20 3 3 -1 11 -10 18 -10 8 -15 9 -15 1 0 -6 6 -11 13 -12 9 0 9 -2 0 -6 -17
-6 -28 -5 -28 5 0 12 -35 57 -43 56 -26 -5 -61 23 -47 38 11 11 87 -11 125
-36z m158 -28 c1 -7 4 -25 7 -39 9 -33 -12 -112 -27 -103 -15 9 0 154 16 154
1 0 3 -6 4 -12z m-63 -84 c-7 -56 -12 -63 -33 -42 -17 17 -15 28 5 21 13 -5
15 -2 10 11 -5 12 -3 15 6 11 6 -4 4 0 -5 8 -22 18 -22 26 -1 57 16 23 18 23
21 6 2 -10 1 -43 -3 -72z m105 -64 c0 -13 -1 -13 -10 0 -5 8 -10 22 -10 30 0
13 1 13 10 0 5 -8 10 -22 10 -30z m-144 -7 c-4 12 -2 17 6 15 15 -5 63 -87 55
-94 -7 -7 -87 75 -87 89 0 6 7 2 16 -9 14 -17 15 -17 10 -1z m541 -11 c-22
-24 -22 -38 0 -21 9 8 5 -3 -11 -23 -35 -46 -72 -72 -82 -56 -4 6 -3 9 2 6 5
-2 25 11 44 30 l35 34 -35 -24 c-19 -14 -50 -31 -69 -38 -29 -12 -31 -15 -15
-20 14 -5 4 -11 -36 -19 -39 -9 -62 -10 -80 -2 -16 6 -19 10 -8 10 9 1 24 4
34 8 11 4 15 3 10 -5 -17 -28 153 69 184 105 19 22 37 38 39 36 2 -1 -3 -11
-12 -21z m-410 -98 c-7 -7 -37 7 -37 17 0 6 9 5 21 -1 11 -7 19 -14 16 -16z
m38 -22 c-3 -3 -11 0 -18 7 -9 10 -8 11 6 5 10 -3 15 -9 12 -12z m128 11 c-7
-2 -19 -2 -25 0 -7 3 -2 5 12 5 14 0 19 -2 13 -5z m-83 -23 c0 -5 -4 -10 -9
-10 -6 0 -13 5 -16 10 -3 6 1 10 9 10 9 0 16 -4 16 -10z m153 -27 c-7 -2 -19
-2 -25 0 -7 3 -2 5 12 5 14 0 19 -2 13 -5z"/>
<path d="M3282 3813 c-18 -8 -31 -18 -28 -20 2 -2 21 5 43 16 45 24 33 28 -15
4z"/>
<path d="M3010 3750 c-8 -5 -10 -10 -5 -10 6 0 17 5 25 10 8 5 11 10 5 10 -5
0 -17 -5 -25 -10z"/>
<path d="M3135 3693 c-15 -4 -9 -9 24 -20 24 -8 45 -12 48 -9 3 3 -7 8 -22 12
-20 5 -23 9 -13 15 10 7 10 8 -2 8 -8 -1 -24 -4 -35 -6z"/>
<path d="M3065 3660 c-3 -6 1 -7 9 -4 18 7 21 14 7 14 -6 0 -13 -4 -16 -10z"/>
<path d="M2814 3638 l-19 -23 23 19 c12 11 22 21 22 23 0 8 -8 2 -26 -19z"/>
<path d="M3293 3650 c-34 -14 -28 -21 7 -9 17 6 30 13 30 15 0 6 -12 4 -37 -6z"/>
<path d="M3063 3640 c-13 -5 -23 -12 -23 -15 0 -9 16 -5 36 10 22 16 19 18
-13 5z"/>
<path d="M3330 3640 c-9 -6 -10 -10 -3 -10 6 0 15 5 18 10 8 12 4 12 -15 0z"/>
<path d="M1649 3613 c-13 -16 -12 -17 4 -4 9 7 17 15 17 17 0 8 -8 3 -21 -13z"/>
<path d="M2310 4495 c0 -10 29 -24 34 -17 3 6 -3 12 -14 15 -11 3 -20 4 -20 2z"/>
<path d="M2692 4447 c3 -14 -56 -78 -67 -71 -3 2 -3 1 -1 -2 3 -3 -8 -27 -23
-52 -15 -26 -28 -64 -30 -84 -2 -35 -1 -37 33 -44 20 -3 41 -14 46 -23 5 -9
10 -13 10 -9 0 4 18 -2 40 -13 28 -15 40 -28 40 -43 0 -14 3 -17 8 -9 12 19
73 -33 65 -55 -4 -9 -2 -13 3 -9 6 3 19 -8 29 -25 18 -31 18 -31 -6 -50 -13
-11 -18 -17 -11 -13 6 3 12 2 12 -3 0 -6 8 -9 18 -8 9 0 16 -5 14 -12 -1 -8 2
-11 7 -7 25 15 -49 158 -102 198 -49 37 -161 97 -182 97 -40 0 13 127 78 187
36 33 41 42 29 52 -11 11 -13 10 -10 -2z"/>
<path d="M2743 4449 c-17 -7 -16 -8 2 -8 11 -1 31 -8 43 -17 12 -8 22 -11 22
-6 0 6 -8 13 -17 16 -15 6 -15 8 -3 16 11 7 10 9 -7 7 -12 0 -30 -4 -40 -8z"/>
<path d="M2281 4385 c-1 -16 -4 -60 -8 -97 -4 -47 -2 -68 5 -68 6 0 9 7 5 16
-4 11 1 22 12 30 17 13 17 14 2 14 -13 0 -16 6 -12 23 11 49 12 73 4 92 -6 17
-8 15 -8 -10z"/>
<path d="M2211 4270 c0 -3 6 -26 14 -52 15 -50 14 -73 -5 -108 -11 -20 -10
-21 12 -9 13 7 27 12 31 11 5 -1 6 2 3 7 -4 5 -2 29 3 53 8 36 8 40 -3 25 -12
-16 -15 -13 -34 30 -11 27 -21 46 -21 43z"/>
<path d="M2422 4246 c-10 -23 -7 -36 8 -36 4 0 7 14 8 30 1 36 -2 37 -16 6z"/>
<path d="M2014 4226 c-18 -18 -35 -32 -37 -29 -2 2 -10 -5 -18 -14 -13 -17
-13 -17 5 -3 18 14 19 13 12 -4 -6 -19 -6 -19 11 -4 10 9 23 18 28 20 6 2 9 7
7 12 -2 5 7 19 19 32 35 37 11 28 -27 -10z"/>
<path d="M2486 4221 c-3 -4 6 -7 19 -7 14 0 22 2 19 5 -8 8 -34 10 -38 2z"/>
<path d="M1979 4143 c-13 -16 -12 -17 4 -4 9 7 17 15 17 17 0 8 -8 3 -21 -13z"/>
<path d="M1848 4123 c-14 -16 -33 -41 -42 -58 -17 -30 -17 -30 1 -5 10 13 31
39 47 57 34 40 30 44 -6 6z"/>
<path d="M1984 4108 l-19 -23 23 19 c21 18 27 26 19 26 -2 0 -12 -10 -23 -22z"/>
<path d="M1886 4036 c-30 -39 -35 -55 -8 -28 18 20 45 62 38 62 -2 0 -15 -15
-30 -34z"/>
<path d="M1939 4023 c-13 -16 -12 -17 4 -4 16 13 21 21 13 21 -2 0 -10 -8 -17
-17z"/>
<path d="M1750 3969 c-12 -23 -20 -43 -18 -45 3 -2 14 17 26 41 27 56 20 60
-8 4z"/>
<path d="M2990 3950 c-8 -5 -10 -10 -5 -10 6 0 17 5 25 10 8 5 11 10 5 10 -5
0 -17 -5 -25 -10z"/>
<path d="M2835 3899 c-11 -4 -14 -8 -7 -8 26 -2 0 -21 -26 -20 -24 0 -25 1 -7
9 26 12 -63 4 -96 -9 -16 -5 12 -8 84 -7 59 0 107 4 107 8 0 5 -9 8 -20 8 -11
0 -20 4 -20 10 0 5 7 7 15 4 8 -4 15 -4 15 -1 0 10 -26 14 -45 6z"/>
<path d="M1814 3868 l-19 -23 23 19 c21 18 27 26 19 26 -2 0 -12 -10 -23 -22z"/>
<path d="M2093 3873 c9 -2 23 -2 30 0 6 3 -1 5 -18 5 -16 0 -22 -2 -12 -5z"/>
<path d="M2598 3873 c7 -3 16 -2 19 1 4 3 -2 6 -13 5 -11 0 -14 -3 -6 -6z"/>
<path d="M2808 3843 c6 -2 18 -2 25 0 6 3 1 5 -13 5 -14 0 -19 -2 -12 -5z"/>
<path d="M2407 3829 c7 -7 15 -10 18 -7 3 3 -2 9 -12 12 -14 6 -15 5 -6 -5z"/>
<path d="M1892 3814 c-7 -8 -8 -14 -3 -14 10 0 25 19 20 25 -2 1 -10 -3 -17
-11z"/>
<path d="M1780 3795 c-13 -14 -20 -25 -15 -25 5 0 -7 -17 -25 -37 -28 -31 -26
-30 12 6 26 24 46 49 45 55 -1 6 4 10 11 8 8 -1 11 2 7 8 -8 13 -8 14 -35 -15z"/>
<path d="M2280 3815 c0 -2 10 -10 23 -16 20 -11 21 -11 8 4 -13 16 -31 23 -31
12z"/>
<path d="M1674 3728 l-29 -33 33 29 c30 28 37 36 29 36 -2 0 -16 -15 -33 -32z"/>
<path d="M2487 3723 c-4 -3 -7 -27 -7 -52 0 -27 -7 -56 -17 -70 -9 -14 -12
-21 -6 -18 6 4 13 2 15 -5 3 -7 10 23 18 65 12 74 11 95 -3 80z"/>
<path d="M1890 3700 c-6 -11 -8 -20 -6 -20 3 0 10 9 16 20 6 11 8 20 6 20 -3
0 -10 -9 -16 -20z"/>
<path d="M1805 3696 c-30 -34 -35 -48 -10 -24 16 15 27 29 24 32 -2 2 -8 -1
-14 -8z"/>
<path d="M1795 3604 c-15 -19 -25 -37 -22 -40 2 -2 16 14 31 36 33 50 28 52
-9 4z"/>
<path d="M2278 3603 c7 -3 16 -2 19 1 4 3 -2 6 -13 5 -11 0 -14 -3 -6 -6z"/>
<path d="M1685 3582 c-11 -10 -29 -33 -39 -52 -11 -19 -17 -33 -14 -30 9 8 78
100 75 100 -1 -1 -11 -9 -22 -18z"/>
<path d="M2404 3578 c-11 -17 -12 -48 -2 -42 4 3 12 14 18 24 11 21 -4 38 -16
18z"/>
<path d="M1735 3529 c-4 -6 -5 -12 -2 -15 2 -3 7 2 10 11 7 17 1 20 -8 4z"/>
<path d="M2443 3503 c-3 -10 -8 -22 -11 -27 -3 -5 0 -6 5 -3 11 7 25 47 17 47
-3 0 -7 -8 -11 -17z"/>
<path d="M1702 3480 c-7 -11 -8 -20 -3 -20 11 0 7 -46 -8 -84 -6 -16 -10 -30
-8 -32 6 -6 56 99 60 126 2 14 2 19 0 12 -4 -10 -7 -10 -16 2 -11 15 -13 14
-25 -4z m28 -21 c0 -6 -4 -7 -10 -4 -5 3 -10 11 -10 16 0 6 5 7 10 4 6 -3 10
-11 10 -16z"/>
<path d="M2421 3434 c0 -11 3 -14 6 -6 3 7 2 16 -1 19 -3 4 -6 -2 -5 -13z"/>
<path d="M1820 3425 c-7 -9 -11 -17 -9 -20 3 -2 10 5 17 15 14 24 10 26 -8 5z"/>
<path d="M1650 3399 c-7 -11 -10 -23 -7 -25 2 -2 9 7 15 21 14 30 7 33 -8 4z"/>
<path d="M1857 3392 c-19 -20 -23 -37 -7 -27 10 6 33 45 27 45 -2 0 -11 -8
-20 -18z"/>
<path d="M1875 3350 c-4 -6 1 -7 12 -3 16 6 16 5 4 -10 -7 -9 -9 -17 -3 -17
12 0 23 26 15 34 -9 9 -21 7 -28 -4z"/>
<path d="M1501 3234 c0 -11 3 -14 6 -6 3 7 2 16 -1 19 -3 4 -6 -2 -5 -13z"/>
<path d="M1686 3023 c-4 -9 0 -23 7 -31 12 -12 15 -11 19 5 7 25 -18 49 -26
26z"/>
<path d="M2501 3020 c14 -31 19 -36 19 -24 0 6 -7 19 -16 30 -14 18 -14 18 -3
-6z"/>
<path d="M1624 2983 c-7 -2 -2 -23 14 -59 20 -43 28 -51 33 -37 8 22 -10 65
-24 56 -5 -3 -6 3 -3 15 7 21 -1 32 -20 25z"/>
<path d="M1781 2964 c0 -11 3 -14 6 -6 3 7 2 16 -1 19 -3 4 -6 -2 -5 -13z"/>
<path d="M2318 2953 c5 -21 7 -23 10 -9 2 10 0 22 -6 28 -6 6 -7 0 -4 -19z"/>
<path d="M1720 2941 c0 -6 4 -13 10 -16 6 -3 7 1 4 9 -7 18 -14 21 -14 7z"/>
<path d="M1690 2923 c0 -7 18 -42 39 -77 22 -35 37 -67 34 -70 -4 -3 -1 -6 5
-6 6 0 10 9 9 19 0 11 -4 18 -7 16 -4 -2 -16 15 -29 38 -38 73 -51 92 -51 80z"/>
<path d="M1730 2906 c0 -14 32 -77 37 -72 3 3 7 22 8 42 1 26 0 32 -7 20 -5
-9 -14 -14 -19 -11 -5 4 -7 11 -4 16 4 5 1 9 -4 9 -6 0 -11 -2 -11 -4z"/>
<path d="M2611 2903 c-1 -6 -4 -20 -7 -30 -5 -17 -5 -17 6 0 6 10 9 23 6 30
-3 9 -5 9 -5 0z"/>
<path d="M1695 2860 c9 -16 18 -30 21 -30 2 0 -2 14 -11 30 -9 17 -18 30 -21
30 -2 0 2 -13 11 -30z"/>
<path d="M1660 2856 c0 -2 7 -9 15 -16 13 -11 14 -10 9 4 -5 14 -24 23 -24 12z"/>
<path d="M2610 2840 c-6 -11 -8 -20 -6 -20 3 0 10 9 16 20 6 11 8 20 6 20 -3
0 -10 -9 -16 -20z"/>
<path d="M2210 2820 c0 -9 37 -24 112 -44 31 -9 60 -21 63 -27 7 -11 -84 -112
-106 -117 -7 -2 -20 -7 -28 -12 -11 -6 -10 -9 7 -15 22 -6 21 -7 -12 -48 -37
-47 -60 -86 -53 -93 2 -3 10 10 17 27 8 17 32 45 54 61 22 16 50 48 61 71 15
31 33 49 70 69 51 29 145 61 153 54 2 -3 -6 -35 -18 -71 -12 -36 -20 -68 -18
-71 3 -2 12 22 22 53 13 42 20 52 28 42 6 -10 7 -7 3 10 -4 13 -3 21 2 18 4
-3 18 12 30 34 21 39 17 53 -7 24 -12 -14 -42 -24 -115 -39 l-30 -6 25 15 c29
16 19 20 -11 4 -15 -8 -25 -7 -37 2 -14 11 -15 11 -4 -1 21 -24 13 -34 -10
-13 -13 11 -36 26 -53 32 l-30 11 32 -3 c31 -3 31 -3 15 19 -10 12 -18 18 -20
13 -4 -10 -85 -12 -96 -2 -9 9 -46 11 -46 3z m128 -159 c-13 -15 -25 -27 -27
-25 -4 4 39 54 47 54 2 0 -7 -13 -20 -29z m-53 -41 c-3 -5 -12 -10 -18 -10 -7
0 -6 4 3 10 19 12 23 12 15 0z m16 -23 c-10 -9 -11 -8 -5 6 3 10 9 15 12 12 3
-3 0 -11 -7 -18z"/>
<path d="M2569 2813 c-8 -9 -27 -22 -44 -29 -26 -11 -27 -13 -8 -14 12 0 25 5
28 10 4 6 12 7 18 4 7 -4 9 -3 4 1 -4 5 0 17 10 27 9 10 14 18 11 18 -3 0 -12
-7 -19 -17z"/>
<path d="M1683 2810 c2 -8 0 -23 -5 -33 -5 -11 -5 -24 1 -35 6 -9 11 -13 11
-8 0 4 8 -2 18 -15 15 -17 21 -19 27 -9 6 9 4 11 -5 5 -10 -6 -12 -4 -7 9 5
11 3 15 -5 10 -8 -5 -9 -2 -5 10 5 11 3 15 -5 10 -7 -5 -9 -2 -6 7 3 8 -1 26
-9 40 -8 13 -12 17 -10 9z m10 -45 c-3 -9 -8 -14 -10 -11 -3 3 -2 9 2 15 9 16
15 13 8 -4z"/>
<path d="M3051 2784 c0 -11 3 -14 6 -6 3 7 2 16 -1 19 -3 4 -6 -2 -5 -13z"/>
<path d="M1740 2760 c6 -11 13 -20 16 -20 2 0 0 9 -6 20 -6 11 -13 20 -16 20
-2 0 0 -9 6 -20z"/>
<path d="M1829 2732 c6 -12 16 -24 22 -28 8 -4 8 -1 0 14 -6 12 -16 24 -22 28
-8 4 -8 1 0 -14z"/>
<path d="M1736 2692 c-6 -10 48 -107 65 -118 6 -3 3 5 -6 19 -9 15 -14 30 -12
35 3 4 2 14 -4 22 -7 13 -9 13 -9 0 -1 -9 -6 -5 -14 10 -8 14 -12 28 -10 32 3
5 3 8 0 8 -3 0 -7 -4 -10 -8z"/>
<path d="M3071 2684 c0 -11 3 -14 6 -6 3 7 2 16 -1 19 -3 4 -6 -2 -5 -13z"/>
<path d="M1930 2660 c6 -11 13 -20 16 -20 2 0 0 9 -6 20 -6 11 -13 20 -16 20
-2 0 0 -9 6 -20z"/>
<path d="M2810 2658 c1 -2 7 -28 15 -58 10 -42 14 -48 14 -25 l1 30 21 -25 20
-25 -12 25 c-10 22 -60 87 -59 78z"/>
<path d="M1804 2622 c0 -10 6 -19 13 -19 8 0 9 6 2 19 -5 10 -11 18 -12 18 -2
0 -3 -8 -3 -18z"/>
<path d="M2784 2538 c-1 -61 2 -95 7 -87 7 11 9 11 9 -2 0 -9 18 -36 41 -60
l41 -44 -23 40 c-13 21 -31 47 -41 57 -14 14 -18 35 -19 91 -1 113 -14 118
-15 5z"/>
<path d="M2154 2600 c-12 -5 -25 -14 -29 -20 -6 -9 -2 -9 13 -1 11 6 37 11 58
11 33 0 35 -2 23 -17 -12 -14 -9 -13 15 2 26 17 27 20 10 26 -25 10 -64 10
-90 -1z"/>
<path d="M3011 2564 c0 -11 3 -14 6 -6 3 7 2 16 -1 19 -3 4 -6 -2 -5 -13z"/>
<path d="M1900 2545 c0 -6 7 -20 15 -31 8 -12 11 -24 8 -28 -3 -3 -1 -6 5 -6
16 0 15 4 -8 42 -11 18 -20 28 -20 23z"/>
<path d="M2823 2480 c0 -25 2 -35 4 -22 2 12 2 32 0 45 -2 12 -4 2 -4 -23z"/>
<path d="M1950 2453 c0 -6 8 -17 18 -24 16 -13 16 -13 2 6 -8 11 -16 22 -17
24 -2 2 -3 0 -3 -6z"/>
<path d="M1845 2409 c-4 -6 -1 -17 7 -25 12 -12 14 -11 15 6 2 23 -13 35 -22
19z"/>
<path d="M2059 2345 c15 -29 80 -102 81 -90 0 6 -20 33 -45 60 -25 28 -41 41
-36 30z"/>
<path d="M2140 2291 c5 -11 15 -23 21 -27 6 -3 3 5 -6 20 -20 30 -30 35 -15 7z"/>
<path d="M2700 2200 c6 -11 15 -18 21 -14 6 4 6 11 -2 20 -17 21 -31 17 -19
-6z"/>
<path d="M2693 2064 c-18 -8 -33 -16 -33 -18 0 -8 63 13 74 24 14 14 -2 11
-41 -6z"/>
<path d="M1081 1525 c-81 -38 -124 -78 -162 -147 -29 -56 -33 -72 -33 -138 0
-92 28 -154 99 -219 74 -68 123 -86 235 -86 79 1 102 5 138 23 23 12 42 27 42
33 0 5 -11 32 -25 59 l-25 49 -37 -16 c-52 -22 -144 -20 -184 3 -18 11 -46 36
-63 57 -62 78 -31 207 61 253 49 24 145 25 191 2 l32 -17 31 60 30 60 -48 22
c-35 16 -72 22 -138 25 -80 2 -96 0 -144 -23z"/>
<path d="M2675 1533 c-94 -49 -132 -154 -84 -232 27 -45 52 -65 119 -97 111
-53 135 -88 90 -129 -29 -26 -116 -17 -169 18 -22 15 -43 27 -45 27 -5 0 -66
-105 -66 -114 0 -3 28 -20 63 -38 57 -30 70 -32 157 -33 87 0 99 2 144 29 61
36 91 95 84 168 -7 66 -55 115 -165 168 -81 38 -105 61 -95 90 13 43 64 51
142 21 l51 -19 25 50 c30 59 26 67 -49 92 -61 20 -163 20 -202 -1z"/>
<path d="M3195 1527 c-63 -31 -128 -98 -156 -161 -32 -73 -30 -184 4 -259 54
-118 162 -183 292 -175 116 8 200 63 257 171 19 35 23 58 23 137 0 84 -3 101
-27 146 -28 54 -86 112 -140 140 -21 12 -63 19 -118 21 -74 4 -91 1 -135 -20z
m203 -127 c69 -42 93 -169 51 -258 -52 -106 -210 -105 -266 1 -24 47 -23 153
3 198 44 76 141 102 212 59z"/>
<path d="M3825 1535 c-111 -60 -142 -177 -70 -263 13 -16 57 -46 97 -67 93
-48 108 -62 108 -96 0 -58 -91 -67 -178 -18 -30 17 -55 29 -56 27 -27 -38 -56
-103 -52 -114 10 -25 114 -66 182 -72 156 -12 256 59 258 185 1 72 -35 114
-146 173 -47 25 -92 51 -102 59 -23 19 -20 47 6 65 30 21 74 20 127 -4 24 -11
45 -19 46 -18 2 2 15 27 29 56 l27 53 -48 21 c-64 29 -185 36 -228 13z"/>
<path d="M1460 1315 c0 -181 3 -233 16 -263 36 -88 115 -128 239 -120 92 6
149 37 185 100 24 42 25 49 28 276 l4 232 -71 0 -71 0 0 -195 c0 -228 -7 -258
-64 -273 -47 -13 -85 -2 -110 32 -19 25 -21 44 -24 232 l-4 204 -64 0 -64 0 0
-225z"/>
<path d="M2010 1240 l0 -300 70 0 69 0 3 117 3 117 90 -117 90 -117 88 0 88 0
-102 122 -103 121 25 16 c102 66 127 203 51 285 -45 48 -78 56 -232 56 l-140
0 0 -300z m250 170 c12 -12 20 -33 20 -55 0 -50 -28 -75 -85 -75 l-45 0 0 75
0 75 45 0 c32 0 51 -6 65 -20z"/>
<path d="M2720 901 c-87 -27 -175 -105 -212 -188 -27 -62 -28 -163 0 -225 28
-65 94 -133 161 -165 49 -25 67 -28 151 -28 76 1 105 5 143 22 l48 22 -31 61
-30 60 -31 -16 c-37 -19 -122 -21 -172 -5 -45 15 -93 69 -107 121 -29 108 68
220 192 220 15 0 48 -7 74 -16 25 -8 47 -14 49 -12 1 2 14 26 28 55 30 59 28
62 -46 87 -50 17 -172 20 -217 7z"/>
<path d="M629 898 c0 -2 -13 -137 -27 -300 l-28 -298 68 0 67 0 5 43 c3 23 10
100 16 171 6 71 12 131 14 133 2 2 30 -74 63 -169 l60 -173 40 -3 40 -3 48
138 c26 76 55 156 65 178 l16 40 12 -141 c7 -77 12 -157 12 -177 l0 -37 70 0
c66 0 70 1 70 23 0 12 -11 141 -25 287 -14 146 -25 271 -25 278 0 8 -22 12
-74 12 l-75 0 -41 -107 c-23 -60 -51 -133 -62 -163 -11 -30 -23 -58 -27 -62
-3 -4 -35 69 -70 163 l-64 169 -74 0 c-40 0 -73 -1 -74 -2z"/>
<path d="M1300 600 l0 -300 175 0 175 0 0 60 0 60 -105 0 -105 0 0 60 0 60
100 0 100 0 0 60 0 60 -100 0 -100 0 0 60 0 60 105 0 105 0 0 60 0 60 -175 0
-175 0 0 -300z"/>
<path d="M1730 600 l0 -302 133 4 c120 3 137 6 183 30 112 58 170 164 162 292
-7 111 -63 196 -161 248 -36 19 -61 23 -179 26 l-138 4 0 -302z m258 153 c49
-36 66 -70 70 -136 7 -108 -46 -177 -146 -193 l-42 -7 0 183 0 183 46 -6 c26
-2 58 -13 72 -24z"/>
<path d="M2280 600 l0 -300 70 0 70 0 0 300 0 300 -70 0 -70 0 0 -300z"/>
<path d="M3070 600 l0 -300 65 0 65 0 0 300 0 300 -65 0 -65 0 0 -300z"/>
<path d="M3300 600 l0 -300 70 0 70 0 2 182 3 182 115 -181 115 -182 73 -1 72
0 0 300 0 300 -70 0 -70 0 -2 -185 -3 -184 -118 184 -118 185 -70 0 -69 0 0
-300z"/>
<path d="M3970 613 c-63 -157 -116 -292 -118 -300 -3 -11 11 -13 70 -11 l73 3
20 58 20 57 116 0 116 0 22 -60 22 -60 74 0 73 0 -120 300 -121 300 -66 0 -66
0 -115 -287z m188 -71 c-33 -2 -63 -1 -66 2 -2 3 6 34 18 68 41 113 39 112 76
18 l32 -85 -60 -3z"/>
</g>
</svg>
