<?xml version="1.0" standalone="no"?>
<!DOCTYPE svg PUBLIC "-//W3C//DTD SVG 20010904//EN"
 "http://www.w3.org/TR/2001/REC-SVG-20010904/DTD/svg10.dtd">
<svg version="1.0" xmlns="http://www.w3.org/2000/svg"
 width="500.000000pt" height="500.000000pt" viewBox="0 0 500.000000 500.000000"
 preserveAspectRatio="xMidYMid meet">

<g transform="translate(0.000000,500.000000) scale(0.100000,-0.100000)"
fill="#000000" stroke="none">
<path d="M2101 4114 c0 -11 3 -14 6 -6 3 7 2 16 -1 19 -3 4 -6 -2 -5 -13z"/>
<path d="M2371 4103 c-1 -16 5 -23 17 -23 10 0 13 3 6 8 -6 4 -14 14 -17 22
-4 10 -6 8 -6 -7z"/>
<path d="M1906 4093 c-13 -14 -5 -18 33 -18 22 0 37 3 34 8 -2 4 -12 7 -21 5
-10 -1 -22 1 -28 4 -6 4 -14 5 -18 1z"/>
<path d="M2112 4072 c3 -12 1 -23 -6 -26 -6 -2 -1 -5 11 -5 16 -1 20 3 16 19
-3 11 -10 23 -16 27 -6 4 -8 -2 -5 -15z"/>
<path d="M2614 4068 l-19 -23 23 19 c21 18 27 26 19 26 -2 0 -12 -10 -23 -22z"/>
<path d="M2718 4068 c5 -5 16 -8 23 -6 8 3 3 7 -10 11 -17 4 -21 3 -13 -5z"/>
<path d="M2451 4054 c0 -11 3 -14 6 -6 3 7 2 16 -1 19 -3 4 -6 -2 -5 -13z"/>
<path d="M2779 4001 c-7 -10 -19 -17 -26 -14 -7 3 -13 0 -13 -6 0 -17 25 -13
51 7 15 13 18 21 11 26 -6 4 -17 -2 -23 -13z"/>
<path d="M1935 3991 c-4 -12 -11 -19 -18 -15 -9 5 -8 3 0 -6 10 -11 18 -11 38
-2 14 7 36 12 47 12 37 0 107 -40 135 -77 22 -29 25 -38 15 -54 -16 -26 -7
-24 32 6 39 30 68 35 44 8 -44 -49 -51 -225 -9 -199 6 4 11 2 11 -4 0 -5 -16
-18 -35 -27 -19 -9 -35 -23 -35 -30 0 -8 -4 -12 -8 -9 -5 3 -8 -4 -8 -16 1
-12 -5 -23 -11 -25 -9 -3 -13 5 -13 23 0 15 -10 38 -21 50 -25 26 -47 20 -86
-24 -13 -16 -27 -23 -37 -19 -10 4 -16 1 -16 -9 0 -8 -17 -33 -39 -57 -51 -55
-94 -139 -56 -107 8 7 15 17 15 23 0 23 54 88 122 147 68 59 71 60 90 43 14
-12 18 -28 17 -55 -2 -24 3 -43 14 -56 9 -10 14 -22 10 -26 -4 -4 0 -12 10
-17 10 -6 17 -22 17 -39 0 -22 -6 -31 -27 -39 -19 -8 -21 -10 -6 -7 37 7 47
-49 11 -64 -19 -7 -19 -9 -5 -9 17 -1 17 -3 1 -33 -9 -18 -20 -40 -24 -48 -10
-20 -41 -25 -51 -8 -6 9 -9 7 -9 -9 0 -28 -14 -37 -30 -18 -16 20 -30 19 -46
-2 -13 -17 -15 -17 -29 1 -15 19 -15 19 -16 -5 -1 -23 -1 -23 -11 5 -8 21 -13
25 -19 15 -5 -8 -9 -26 -9 -41 0 -53 -20 -40 -21 14 -1 29 -3 44 -6 33 -3 -11
-9 -24 -14 -30 -5 -5 -9 -21 -9 -36 0 -15 -4 -30 -9 -34 -10 -6 -25 30 -18 42
3 5 0 17 -4 28 -6 13 -8 2 -4 -35 3 -30 5 -66 5 -80 1 -24 1 -24 15 -6 17 22
35 13 35 -19 0 -31 -16 -40 -30 -18 -10 15 -10 14 -5 -7 4 -14 11 -52 16 -85
5 -33 25 -91 44 -130 33 -69 168 -250 185 -250 4 0 12 -4 17 -9 5 -5 3 -6 -4
-2 -37 21 -2 -25 87 -117 56 -56 118 -120 139 -143 44 -45 155 -109 176 -100
8 3 17 1 20 -4 8 -12 55 -13 55 -1 0 4 11 6 24 4 19 -4 37 6 76 43 57 54 77
88 143 249 25 61 60 143 77 184 33 76 37 109 26 196 -6 39 -5 46 4 32 6 -9 9
-21 6 -25 -2 -4 -1 -14 5 -22 14 -24 11 29 -5 84 -15 50 -8 140 18 221 7 22
14 75 15 119 3 116 19 143 69 117 35 -17 98 -21 118 -7 18 14 18 15 -10 45
l-30 31 35 1 c31 1 32 2 9 9 l-25 7 25 5 c14 3 3 4 -24 2 -57 -4 -69 -12 -42
-28 30 -17 56 -45 56 -58 0 -7 -10 -2 -21 12 -11 14 -18 20 -16 15 4 -8 -14
-8 -60 -1 -50 7 -60 12 -44 18 31 11 26 15 -16 10 -21 -3 -41 -11 -46 -18 -4
-7 -14 -11 -22 -8 -8 4 -15 1 -15 -5 0 -6 11 -11 25 -11 22 0 24 -3 15 -19 -7
-13 -7 -22 0 -26 5 -3 10 -15 10 -26 0 -13 -4 -18 -11 -13 -9 5 -10 -10 -6
-57 4 -41 3 -57 -3 -44 -7 17 -9 16 -9 -10 l-1 -30 -22 35 c-28 46 -27 44 -34
37 -3 -3 -2 -12 2 -19 5 -7 10 -22 11 -32 2 -11 8 -25 14 -32 6 -7 13 -46 16
-86 6 -73 5 -74 -23 -87 -16 -8 -45 -14 -64 -15 -28 0 -34 3 -32 17 2 9 -2 17
-8 17 -6 0 -8 5 -5 11 4 6 0 16 -9 22 -9 7 -17 27 -19 44 -1 18 -6 33 -11 33
-5 0 -3 7 4 15 8 9 8 15 2 15 -14 0 -25 -37 -16 -52 4 -7 11 -31 14 -55 l7
-42 -40 29 c-44 33 -54 64 -29 93 15 16 14 17 -2 11 -16 -6 -17 -4 -7 15 7 12
9 26 6 32 -9 14 14 39 35 39 11 0 17 7 16 18 0 9 5 16 12 15 6 -2 12 5 13 15
0 10 3 12 6 5 3 -10 8 -9 20 2 8 8 19 12 25 9 7 -5 8 -2 3 6 -6 10 -3 12 13 8
12 -4 20 -2 16 3 -3 5 -19 9 -35 9 -20 0 -28 -4 -23 -12 4 -7 3 -8 -4 -4 -18
11 -88 -45 -112 -89 l-21 -40 5 35 c7 57 42 183 59 216 20 39 103 93 154 100
21 3 54 12 73 19 79 30 81 31 113 33 9 1 25 11 34 22 18 20 50 29 38 10 -3 -5
0 -7 9 -4 8 3 12 12 9 20 -7 18 -9 18 -44 -3 -35 -21 -43 -14 -44 40 -1 23 -6
54 -13 69 -10 25 -14 26 -44 17 -18 -5 -34 -9 -35 -9 -2 0 -2 -10 0 -22 1 -13
-4 -23 -10 -23 -7 0 -13 -3 -13 -7 0 -5 0 -10 0 -13 0 -3 13 1 30 10 16 8 33
14 37 13 10 -4 10 -68 1 -68 -4 0 -5 -6 -2 -14 4 -9 -16 -20 -68 -37 -40 -13
-75 -24 -78 -24 -16 -1 -70 -29 -70 -36 0 -5 -8 -9 -18 -9 -11 0 -27 -9 -37
-20 -10 -11 -20 -18 -23 -15 -9 9 -33 -35 -26 -47 4 -6 3 -8 -4 -4 -11 7 -28
-31 -18 -41 3 -4 1 -12 -6 -20 -6 -7 -12 -34 -13 -59 -1 -33 -7 -49 -23 -60
-12 -8 -19 -20 -16 -26 10 -16 4 -249 -6 -268 -6 -12 -5 -17 5 -17 7 0 16 11
20 24 3 13 9 23 13 23 5 0 7 23 5 50 -3 30 0 50 7 50 6 0 11 -31 12 -77 1 -47
3 -61 5 -35 2 23 6 42 8 42 3 0 32 -14 65 -31 53 -27 79 -33 151 -38 13 -1 18
-16 23 -63 10 -94 9 -111 -6 -122 -7 -6 -13 -20 -13 -31 1 -19 -19 -68 -71
-180 -12 -27 -24 -59 -26 -70 -2 -11 -8 -25 -14 -32 -6 -6 -19 -36 -28 -67
-10 -31 -22 -56 -28 -56 -5 0 -6 6 -2 13 3 6 -9 -6 -27 -28 -19 -22 -33 -42
-32 -46 1 -4 -8 -7 -20 -7 -43 -1 -109 -14 -135 -28 -19 -9 -28 -10 -33 -2 -4
6 -11 8 -15 5 -13 -7 -56 11 -50 22 3 5 -1 11 -9 15 -16 6 -21 46 -6 46 5 0
16 -11 24 -23 11 -18 25 -24 54 -25 l38 -1 -27 15 c-31 16 -37 26 -10 17 11
-4 10 0 -5 11 -13 10 -23 26 -23 37 0 15 7 19 33 20 l32 1 -31 13 c-29 13 -31
17 -28 55 4 45 77 222 99 240 10 8 15 8 21 -1 4 -8 3 -9 -4 -5 -6 4 -5 -6 3
-21 8 -15 15 -37 15 -48 1 -19 1 -19 11 -2 8 13 5 31 -9 69 l-19 51 28 80 c16
44 31 82 34 85 7 7 29 -23 55 -73 11 -22 20 -33 20 -24 0 9 -10 31 -23 50 -12
19 -23 45 -24 58 -2 26 -14 42 -20 26 -13 -38 -112 -184 -116 -173 -3 7 -6 4
-6 -8 -1 -12 -14 -46 -29 -75 -36 -70 -45 -92 -31 -84 11 7 9 -46 -2 -55 -15
-12 -58 -110 -49 -110 7 0 10 -16 8 -40 -5 -66 -23 -45 -23 28 0 53 4 72 20
92 18 23 17 23 -11 -2 -35 -33 -41 -34 -66 -11 -20 18 -25 5 -5 -16 10 -11 8
-12 -13 -7 -14 4 -36 10 -50 12 -14 3 -35 7 -46 10 -12 2 -24 14 -28 26 -3 13
-33 52 -66 88 -34 36 -54 53 -45 38 9 -15 14 -32 10 -38 -9 -15 -25 -2 -19 15
3 8 -8 34 -25 58 -17 25 -28 46 -26 49 3 2 -11 29 -30 59 -18 30 -30 56 -24
57 5 2 9 8 9 14 0 6 -6 8 -14 5 -10 -4 -12 0 -9 14 3 10 1 19 -5 19 -11 0 -42
82 -42 112 0 10 5 18 11 18 5 0 7 -4 4 -10 -3 -5 -1 -10 5 -10 7 0 9 8 5 21
-5 16 0 27 21 45 16 13 34 23 40 24 12 0 54 42 54 54 0 5 -8 2 -17 -5 -11 -9
-10 -3 6 19 12 17 25 32 29 32 3 0 1 -5 -6 -12 -20 -20 -13 -32 8 -13 20 18
20 17 20 -23 0 -25 -5 -42 -11 -42 -17 0 -38 -32 -38 -55 0 -19 1 -19 11 2 19
40 35 35 54 -17 10 -27 20 -48 22 -45 2 2 -4 24 -13 49 -18 46 -14 66 10 66
12 0 12 4 0 26 -29 56 17 112 98 121 42 5 47 3 58 -21 7 -14 26 -34 44 -45 30
-17 32 -23 38 -87 4 -37 12 -73 19 -79 7 -5 10 -6 6 -1 -5 6 -8 41 -8 78 0 83
9 86 75 21 27 -27 45 -42 40 -34 -7 11 -2 13 26 8 20 -4 29 -3 21 2 -11 7 -11
9 2 14 9 4 23 3 33 0 11 -4 14 -3 9 6 -5 8 -23 9 -57 5 l-49 -7 6 34 c4 19 14
42 22 52 9 10 11 17 4 17 -6 0 -20 -16 -30 -36 l-18 -35 -26 20 c-14 11 -28
18 -30 15 -3 -2 -11 2 -17 10 -28 34 37 93 92 82 19 -4 27 -3 19 3 -8 4 -14
12 -15 17 0 5 -7 15 -14 22 -11 11 -13 11 -13 0 0 -7 -10 -19 -21 -27 -20 -12
-21 -11 -17 13 4 21 3 24 -8 15 -7 -6 -11 -16 -8 -23 3 -7 -5 -23 -17 -37 -11
-13 -24 -30 -28 -38 -6 -10 -13 -11 -30 -2 -22 12 -30 64 -11 76 6 4 8 10 5
15 -3 4 12 24 33 43 125 119 149 136 139 96 -4 -16 -3 -19 5 -11 9 9 8 18 -1
36 -8 13 -10 30 -6 37 5 7 4 10 -2 6 -6 -4 -13 2 -16 13 -3 12 -14 20 -25 20
-33 0 -36 18 -11 66 17 33 27 43 38 38 23 -10 188 -18 178 -8 -4 4 -24 14 -45
22 -90 34 -147 24 -178 -33 -10 -19 -22 -31 -27 -28 -6 3 -7 1 -3 -5 12 -20
-4 -34 -22 -20 -15 11 -15 11 -5 -3 7 -9 15 -45 17 -80 2 -35 6 -69 8 -74 1
-6 -16 -28 -40 -49 -24 -22 -50 -52 -58 -68 -8 -16 -23 -28 -34 -28 -22 0 -27
15 -8 26 8 5 -1 12 -23 20 -31 11 -32 13 -9 14 l25 2 -27 10 c-29 10 -35 22
-18 33 6 4 7 12 3 18 -12 19 -13 40 -1 54 7 9 7 13 -1 13 -7 0 -10 4 -6 9 3 5
0 13 -6 16 -5 4 -8 13 -5 21 3 8 1 14 -3 14 -5 0 -7 9 -4 20 3 12 14 20 27 20
17 0 18 2 6 9 -8 6 -18 7 -22 5 -14 -9 -9 5 16 45 14 22 30 41 36 43 7 2 14
21 16 43 3 22 7 45 9 52 2 7 0 15 -5 18 -6 4 -10 13 -10 21 0 8 4 13 9 10 10
-6 25 24 16 32 -3 3 -5 -1 -5 -8 0 -7 -2 -11 -5 -8 -10 9 7 38 18 31 6 -4 8 0
4 10 -3 9 1 18 11 22 26 11 -23 27 -75 26 -48 -1 -51 3 -25 33 17 21 17 21 -3
5 -20 -17 -50 -15 -39 2 3 5 -2 9 -10 9 -9 0 -16 5 -16 10 0 6 -6 10 -14 10
-7 0 -21 11 -30 25 -16 24 -46 35 -46 16 0 -12 -73 -10 -81 2 -4 5 -10 0 -14
-12z m639 -361 c7 -7 1 -10 -19 -10 -43 0 -76 11 -69 22 8 12 73 3 88 -12z
m-667 -487 c-3 -10 -5 -2 -5 17 0 19 2 27 5 18 2 -10 2 -26 0 -35z m83 11 c0
-8 -4 -12 -10 -9 -5 3 -10 10 -10 16 0 5 5 9 10 9 6 0 10 -7 10 -16z m927 -6
c-3 -8 -6 -5 -6 6 -1 11 2 17 5 13 3 -3 4 -12 1 -19z m-959 -424 c-4 -3 -12 5
-18 18 -12 22 -12 22 6 6 10 -10 15 -20 12 -24z m528 -99 c-9 -13 -13 -32 -10
-42 5 -15 4 -16 -5 -3 -9 12 -11 13 -11 1 0 -8 -2 -12 -5 -9 -3 3 4 27 17 52
12 26 24 42 26 36 2 -6 -3 -22 -12 -35z m-205 -196 c20 -14 29 -29 29 -47 -1
-26 -1 -26 -15 -8 -8 11 -15 15 -15 8 0 -6 -11 0 -25 14 -14 14 -32 24 -38 21
-7 -3 -14 3 -14 14 -2 26 40 25 78 -2z m89 17 c0 -2 -8 -10 -17 -17 -16 -13
-17 -12 -4 4 13 16 21 21 21 13z m-18 -109 c-7 -24 -6 -41 5 -60 17 -33 4 -35
-26 -3 -18 19 -19 25 -7 29 9 4 13 17 11 39 -1 18 3 42 9 53 10 20 11 20 14
-2 2 -12 -1 -37 -6 -56z m335 -62 c0 -8 -12 -25 -26 -37 -14 -13 -19 -15 -12
-5 7 9 10 17 6 17 -5 0 0 9 10 20 22 24 22 24 22 5z m-73 -50 c-6 -15 -42 -31
-51 -22 -2 3 8 12 24 21 35 19 33 19 27 1z m-64 -25 c0 -5 -2 -10 -4 -10 -3 0
-8 5 -11 10 -3 6 -1 10 4 10 6 0 11 -4 11 -10z"/>
<path d="M2690 3989 c0 -5 -4 -7 -10 -4 -5 3 -10 2 -10 -3 0 -5 8 -12 19 -15
14 -3 17 0 14 14 -6 21 -13 25 -13 8z"/>
<path d="M2512 3978 c-14 -18 -43 -78 -38 -78 2 0 16 20 29 45 25 45 29 57 9
33z"/>
<path d="M2721 3974 c0 -11 3 -14 6 -6 3 7 2 16 -1 19 -3 4 -6 -2 -5 -13z"/>
<path d="M2442 3950 c0 -14 2 -19 5 -12 2 6 2 18 0 25 -3 6 -5 1 -5 -13z"/>
<path d="M2599 3943 l-24 -28 28 24 c25 23 32 31 24 31 -2 0 -14 -12 -28 -27z"/>
<path d="M2352 3920 c0 -14 2 -19 5 -12 2 6 2 18 0 25 -3 6 -5 1 -5 -13z"/>
<path d="M2565 3899 c-4 -6 -5 -12 -2 -15 2 -3 7 2 10 11 7 17 1 20 -8 4z"/>
<path d="M2340 3844 c0 -14 4 -23 10 -19 5 3 7 12 4 19 -3 8 2 16 13 19 14 4
14 5 -4 6 -18 1 -23 -4 -23 -25z"/>
<path d="M2168 3833 c-25 -30 -29 -41 -17 -49 7 -4 9 -3 5 4 -3 6 -2 13 4 17
10 6 34 45 27 45 -2 0 -11 -8 -19 -17z"/>
<path d="M2440 3840 c0 -5 5 -10 10 -10 6 0 10 5 10 10 0 6 -4 10 -10 10 -5 0
-10 -4 -10 -10z"/>
<path d="M2315 3796 c0 -39 2 -43 14 -31 13 13 13 18 0 45 l-14 30 0 -44z"/>
<path d="M2565 3813 c10 -3 30 -12 42 -20 13 -9 26 -13 29 -10 8 8 -51 37 -73
36 -16 -1 -16 -2 2 -6z"/>
<path d="M2680 3748 c19 -19 41 -43 48 -54 11 -16 11 -15 1 6 -15 32 -39 59
-64 72 -11 6 -5 -5 15 -24z"/>
<path d="M2149 3753 c-13 -16 -12 -17 4 -4 9 7 17 15 17 17 0 8 -8 3 -21 -13z"/>
<path d="M2080 3698 c-12 -22 -12 -22 6 -6 10 10 15 20 12 24 -4 3 -12 -5 -18
-18z"/>
<path d="M2730 3654 c0 -3 7 -12 15 -20 16 -17 18 -14 9 10 -6 15 -24 23 -24
10z"/>
<path d="M2655 3600 c-19 -8 -19 -9 3 -9 12 -1 31 -6 41 -13 15 -9 23 -9 35 1
16 14 12 36 -5 25 -5 -3 -7 -10 -4 -15 10 -15 -12 -10 -29 6 -8 8 -16 15 -18
14 -2 0 -12 -4 -23 -9z"/>
<path d="M3081 3562 c-7 -13 -27 -32 -44 -44 -18 -11 -24 -17 -14 -14 10 3 28
6 38 6 11 0 18 4 15 8 -11 18 94 18 106 0 7 -9 8 -7 6 7 -2 13 -12 20 -26 21
-41 3 -44 4 -38 20 5 14 4 15 -8 5 -11 -9 -15 -9 -18 1 -3 8 -9 5 -17 -10z"/>
<path d="M2049 3523 c-13 -16 -12 -17 4 -4 9 7 17 15 17 17 0 8 -8 3 -21 -13z"/>
<path d="M1984 3498 l-19 -23 23 19 c21 18 27 26 19 26 -2 0 -12 -10 -23 -22z"/>
<path d="M3070 3503 c-19 -3 -39 -9 -45 -15 -7 -8 -2 -9 15 -4 14 3 40 6 58 6
17 0 32 5 32 10 0 6 -6 9 -12 8 -7 0 -29 -3 -48 -5z"/>
<path d="M2491 3474 c0 -11 3 -14 6 -6 3 7 2 16 -1 19 -3 4 -6 -2 -5 -13z"/>
<path d="M3177 3470 c-3 -11 -1 -20 4 -20 5 0 9 9 9 20 0 11 -2 20 -4 20 -2 0
-6 -9 -9 -20z"/>
<path d="M1980 3465 c-7 -8 -17 -12 -22 -9 -13 8 -55 -32 -88 -83 -15 -23 -31
-39 -35 -35 -5 4 -5 -1 -2 -11 4 -10 2 -27 -3 -37 -22 -40 15 -8 48 42 19 28
29 47 23 44 -15 -10 -14 17 1 32 17 17 33 15 18 -3 -25 -31 -3 -14 40 30 24
25 42 45 38 45 -3 0 -11 -7 -18 -15z m-100 -114 c-5 -11 -15 -23 -22 -27 -7
-5 -8 -2 -3 7 21 37 44 55 25 20z"/>
<path d="M2014 3458 l-19 -23 23 19 c21 18 27 26 19 26 -2 0 -12 -10 -23 -22z"/>
<path d="M2925 3470 c-13 -6 -15 -9 -5 -9 8 0 22 4 30 9 18 12 2 12 -25 0z"/>
<path d="M2443 3403 c-3 -10 -8 -21 -10 -25 -5 -9 25 -4 34 7 4 4 2 5 -6 0
-11 -6 -13 -3 -9 13 7 26 0 29 -9 5z"/>
<path d="M1930 3380 c-6 -11 -8 -20 -6 -20 3 0 10 9 16 20 6 11 8 20 6 20 -3
0 -10 -9 -16 -20z"/>
<path d="M1994 3378 l-19 -23 23 19 c21 18 27 26 19 26 -2 0 -12 -10 -23 -22z"/>
<path d="M1841 3374 c0 -11 3 -14 6 -6 3 7 2 16 -1 19 -3 4 -6 -2 -5 -13z"/>
<path d="M1980 3319 c0 -6 -6 -9 -12 -6 -9 3 -13 -7 -14 -30 -1 -30 0 -32 11
-16 15 22 29 63 21 63 -3 0 -6 -5 -6 -11z"/>
<path d="M2049 3303 c-13 -16 -12 -17 4 -4 9 7 17 15 17 17 0 8 -8 3 -21 -13z"/>
<path d="M2059 3263 c-13 -16 -12 -17 4 -4 9 7 17 15 17 17 0 8 -8 3 -21 -13z"/>
<path d="M1811 3244 c0 -11 3 -14 6 -6 3 7 2 16 -1 19 -3 4 -6 -2 -5 -13z"/>
<path d="M2016 3217 c3 -10 9 -15 12 -12 3 3 0 11 -7 18 -10 9 -11 8 -5 -6z"/>
<path d="M1835 3060 c-3 -5 -1 -18 4 -27 9 -16 10 -14 11 10 0 28 -5 34 -15
17z"/>
<path d="M1910 2963 c1 -5 10 -24 21 -43 11 -19 17 -26 14 -15 -7 21 -13 44
-14 58 -1 4 -5 7 -11 7 -5 0 -10 -3 -10 -7z"/>
<path d="M1964 2921 c21 -34 41 -34 42 -2 2 25 1 25 -8 4 l-11 -22 -19 22 -20
22 16 -24z"/>
<path d="M2300 2884 c0 -12 69 -32 90 -27 15 4 21 2 17 -4 -4 -6 0 -14 9 -17
12 -5 10 -11 -15 -32 -17 -14 -29 -30 -26 -34 3 -5 -4 -14 -16 -20 -11 -7 -18
-14 -15 -18 4 -3 -4 -17 -16 -31 l-23 -25 33 23 c18 13 37 34 42 47 10 26 44
51 98 70 32 11 34 13 12 15 -14 1 -33 2 -43 2 -10 0 -23 9 -29 22 -7 16 -16
21 -34 17 -13 -2 -37 1 -54 6 -16 6 -30 9 -30 6z"/>
<path d="M2676 2860 c7 -8 14 -24 17 -35 4 -19 5 -19 6 1 0 12 -7 28 -16 35
-16 12 -17 12 -7 -1z"/>
<path d="M2545 2847 c-12 -7 -21 -24 -22 -42 -2 -27 -1 -28 9 -10 6 11 14 22
18 25 6 5 22 40 17 40 -1 -1 -11 -6 -22 -13z"/>
<path d="M2488 2843 c7 -3 16 -2 19 1 4 3 -2 6 -13 5 -11 0 -14 -3 -6 -6z"/>
<path d="M1965 2821 c-3 -5 -1 -12 5 -16 5 -3 10 1 10 9 0 18 -6 21 -15 7z"/>
<path d="M2710 2754 c0 -13 20 -41 20 -29 0 6 5 3 10 -5 5 -8 10 -10 10 -4 0
6 -9 19 -20 29 -11 10 -20 14 -20 9z"/>
<path d="M2691 2734 c0 -11 3 -14 6 -6 3 7 2 16 -1 19 -3 4 -6 -2 -5 -13z"/>
<path d="M2246 2721 c-4 -5 3 -7 14 -4 23 6 26 13 6 13 -8 0 -17 -4 -20 -9z"/>
<path d="M2691 2672 c-1 -29 20 -71 50 -97 20 -17 19 -14 -5 19 -16 21 -32 53
-37 70 -5 24 -7 26 -8 8z"/>
<path d="M2035 2660 c3 -5 8 -10 11 -10 2 0 4 5 4 10 0 6 -5 10 -11 10 -5 0
-7 -4 -4 -10z"/>
<path d="M2588 2564 c-4 -22 28 -84 45 -84 6 0 18 -6 27 -12 9 -7 3 0 -14 16
-16 16 -35 45 -42 64 -9 28 -13 31 -16 16z"/>
<path d="M2221 2529 c11 -16 25 -32 31 -36 7 -3 2 7 -10 24 -12 17 -19 32 -17
35 3 3 -2 5 -9 5 -12 0 -11 -6 5 -28z"/>
<path d="M2416 2535 c-9 -26 -7 -32 5 -12 6 10 9 21 6 23 -2 3 -7 -2 -11 -11z"/>
<path d="M2615 2360 c-3 -6 1 -7 9 -4 18 7 21 14 7 14 -6 0 -13 -4 -16 -10z"/>
<path d="M2447 2239 c7 -7 15 -10 18 -7 3 3 -2 9 -12 12 -14 6 -15 5 -6 -5z"/>
<path d="M1769 1951 c-46 -9 -95 -44 -116 -84 -13 -24 -18 -56 -17 -127 0 -79
3 -102 22 -138 29 -55 73 -82 135 -82 l47 0 0 55 c0 49 -2 55 -20 55 -12 0
-32 11 -45 25 -20 19 -25 34 -25 77 0 66 20 98 61 98 29 0 29 0 29 59 0 44 -4
60 -16 65 -9 3 -16 5 -17 5 -1 -1 -18 -4 -38 -8z"/>
<path d="M2645 1955 c-5 -2 -23 -6 -38 -9 -37 -9 -67 -59 -67 -114 0 -54 10
-74 72 -140 27 -28 46 -57 43 -62 -8 -13 -62 -13 -70 0 -7 12 -45 14 -46 3 -7
-51 -3 -96 9 -105 21 -18 132 -14 169 5 41 22 53 44 53 102 0 58 -16 89 -75
143 -26 23 -45 48 -42 55 2 7 22 12 48 12 l44 0 3 51 c3 50 2 51 -29 58 -33 6
-57 7 -74 1z"/>
<path d="M2902 1950 c-78 -18 -95 -60 -90 -228 4 -151 15 -177 87 -201 90 -29
162 14 182 107 15 74 7 218 -15 260 -26 50 -97 77 -164 62z m71 -142 c5 -21 5
-69 0 -110 -7 -64 -11 -73 -28 -73 -18 0 -20 8 -23 99 -1 55 0 106 3 114 10
26 39 8 48 -30z"/>
<path d="M3220 1950 c-45 -11 -75 -47 -84 -98 -8 -55 6 -88 66 -149 59 -60 61
-90 5 -79 -73 15 -72 16 -75 -41 l-3 -52 41 -11 c96 -26 184 16 195 94 9 61 0
82 -63 148 -65 69 -65 91 0 86 l43 -3 3 44 c2 24 0 47 -5 52 -13 13 -85 19
-123 9z"/>
<path d="M1897 1944 c-4 -4 -7 -88 -7 -186 l0 -180 28 -28 c52 -51 162 -49
213 6 24 25 24 29 24 207 l0 182 -50 0 -50 0 -5 -160 c-5 -156 -6 -160 -27
-163 -22 -3 -23 -2 -25 160 l-3 163 -45 3 c-25 2 -49 0 -53 -4z"/>
<path d="M2227 1943 c-4 -3 -7 -100 -7 -215 l0 -209 53 3 52 3 5 55 5 55 30
-55 c30 -55 30 -55 83 -58 62 -4 64 3 25 83 -23 46 -25 59 -15 73 62 86 54
220 -17 256 -31 16 -200 23 -214 9z m148 -143 c0 -38 -3 -45 -20 -45 -15 0
-21 8 -23 33 -4 45 4 64 25 60 14 -3 18 -13 18 -48z"/>
<path d="M2701 1270 c-84 -20 -123 -79 -129 -197 -5 -97 11 -153 58 -198 25
-23 41 -30 90 -33 l60 -4 0 56 c0 48 -3 56 -19 56 -30 0 -70 38 -76 74 -4 18
-2 51 5 74 8 33 16 43 38 48 52 11 52 12 52 68 0 40 -4 55 -16 60 -18 7 -17 7
-63 -4z"/>
<path d="M1410 1054 l0 -215 53 3 52 3 3 100 3 100 27 -49 c15 -27 32 -51 38
-53 7 -2 20 17 30 42 11 24 23 45 28 45 4 0 7 -42 5 -92 l-4 -93 55 0 54 0 3
213 3 212 -55 0 -55 0 -29 -65 c-16 -36 -34 -65 -38 -65 -5 0 -23 29 -41 65
l-32 65 -50 0 -50 0 0 -216z"/>
<path d="M1815 1248 c-3 -13 -4 -108 -3 -213 l3 -190 110 0 110 0 0 45 0 45
-52 3 c-47 3 -54 6 -59 28 -9 34 2 42 56 46 l45 3 3 48 3 47 -50 0 c-41 0 -51
4 -56 20 -10 31 2 40 50 40 49 0 62 14 61 65 l-1 30 -107 3 c-105 3 -108 2
-113 -20z"/>
<path d="M2095 1250 c-8 -25 -3 -388 6 -402 4 -6 37 -9 87 -7 96 5 125 21 162
95 33 65 35 189 3 250 -33 65 -72 84 -169 84 -73 0 -83 -2 -89 -20z m160 -200
c0 -92 -10 -118 -39 -107 -13 5 -16 25 -16 111 0 108 8 129 40 99 11 -10 15
-37 15 -103z"/>
<path d="M2424 1257 c-2 -7 -3 -102 -2 -212 l3 -200 53 -3 52 -3 0 215 0 216
-50 0 c-32 0 -52 -5 -56 -13z"/>
<path d="M2829 1263 c-5 -47 -4 -405 1 -413 4 -7 28 -10 56 -8 l49 3 0 210 0
210 -52 3 c-29 2 -53 -1 -54 -5z"/>
<path d="M2990 1054 l0 -215 53 3 52 3 -1 94 -2 95 25 -60 c60 -147 50 -135
106 -132 l50 3 0 210 -1 210 -48 0 -49 0 -5 -90 c-3 -60 -7 -82 -12 -65 -4 14
-21 56 -38 93 l-30 67 -50 0 -50 0 0 -216z"/>
<path d="M3380 1248 c-13 -31 -70 -389 -64 -400 3 -4 27 -8 53 -8 48 0 49 1
55 36 7 32 10 35 39 32 27 -2 33 -8 37 -33 5 -27 9 -30 49 -33 24 -2 48 1 54
7 10 10 4 59 -37 296 l-21 120 -78 3 c-72 3 -78 1 -87 -20z m99 -190 c1 -32
-2 -38 -20 -38 -20 0 -21 3 -15 52 4 28 10 57 14 62 8 14 20 -28 21 -76z"/>
</g>
</svg>
